<svg width="120" height="26" viewBox="0 0 120 26" fill="none" xmlns="http://www.w3.org/2000/svg">
<rect y="12.5" width="93" height="13" fill="#06942A" fill-opacity="0.14"/>
<path d="M3.568 15.676V4.972H1.6V17.5H9.216V15.676H3.568ZM18.6048 13.788C18.6208 13.644 18.6368 13.452 18.6368 13.196C18.6368 11.868 18.2688 10.812 17.5328 9.996C16.7968 9.18 15.7728 8.78 14.4768 8.78C13.2448 8.78 12.2208 9.212 11.4048 10.076C10.5888 10.94 10.1728 11.98 10.1728 13.212C10.1728 14.476 10.6048 15.548 11.4528 16.396C12.3168 17.244 13.3888 17.66 14.6528 17.66C16.1888 17.66 17.5808 16.924 18.3008 15.596L16.9248 14.684C16.4608 15.564 15.6928 16.012 14.6208 16.012C13.9648 16.012 13.3888 15.804 12.8928 15.388C12.3968 14.956 12.1408 14.428 12.1248 13.788H18.6048ZM14.4768 10.412C15.6928 10.412 16.6368 11.148 16.7008 12.348H12.2208C12.3968 11.18 13.3088 10.412 14.4768 10.412ZM25.4725 11.708C25.4725 12.188 25.2005 12.428 24.6725 12.428H23.6165C22.1125 12.428 20.0645 13.052 20.0645 15.036V15.132C20.0645 15.868 20.3365 16.476 20.8805 16.94C21.4245 17.404 22.1125 17.644 22.9445 17.644C24.0965 17.644 24.9285 17.212 25.4565 16.332V17.5H27.3285V12.06C27.3285 11.468 27.2325 10.956 27.0405 10.524C26.5125 9.356 25.4405 8.78 23.8405 8.78C22.0965 8.78 20.8805 9.5 20.2085 10.956L21.6645 11.788C22.0965 10.876 22.8165 10.428 23.7925 10.428C24.8645 10.428 25.4725 11.004 25.4725 11.708ZM25.4565 14.044C25.4565 15.324 24.6245 16.124 23.3285 16.124C22.5125 16.124 21.9685 15.66 21.9685 14.956C21.9685 14.588 22.1445 14.3 22.4805 14.092C22.8325 13.884 23.2165 13.772 23.6165 13.772H25.4565V14.044ZM34.4676 8.924C34.3556 8.892 34.2116 8.876 34.0036 8.876C32.9636 8.876 32.1796 9.356 31.6516 10.316V8.956H29.7956V17.5H31.6996V13.164C31.6996 11.676 32.4676 10.828 33.9236 10.828C34.1316 10.828 34.3076 10.844 34.4676 10.876V8.924ZM43.7409 17.5V12.236C43.7409 10.188 42.6369 8.78 40.5409 8.78C39.4529 8.78 38.5889 9.228 37.9329 10.108V8.956H36.0769V17.5H37.9809V12.748C37.9809 11.452 38.7489 10.588 39.9489 10.588C41.2129 10.588 41.8369 11.436 41.8369 12.716V17.5H43.7409ZM62.3086 17.5H64.2606V4.972H61.6846L57.5086 14.556H57.4926L53.2526 4.972H50.7406V17.5H52.6766V8.412H52.7086L56.7566 17.5H58.2126L62.2766 8.364H62.3086V17.5ZM71.0754 8.78C69.8274 8.78 68.7554 9.212 67.8754 10.06C66.9954 10.908 66.5474 11.964 66.5474 13.212C66.5474 14.46 66.9794 15.516 67.8594 16.364C68.7394 17.212 69.8114 17.644 71.0594 17.644C72.3234 17.644 73.3794 17.212 74.2434 16.364C75.1234 15.5 75.5554 14.444 75.5554 13.18C75.5554 11.932 75.1234 10.892 74.2434 10.044C73.3634 9.196 72.3074 8.78 71.0754 8.78ZM69.2034 11.292C69.6834 10.764 70.3074 10.508 71.0594 10.508C71.8114 10.508 72.4354 10.764 72.8994 11.292C73.3794 11.82 73.6194 12.46 73.6194 13.212C73.6194 13.964 73.3794 14.604 72.9154 15.132C72.4514 15.66 71.8274 15.916 71.0754 15.916C70.3234 15.916 69.6994 15.644 69.2194 15.116C68.7394 14.572 68.4994 13.932 68.4994 13.18C68.4994 12.428 68.7394 11.804 69.2034 11.292ZM82.2176 8.924C82.1056 8.892 81.9616 8.876 81.7536 8.876C80.7136 8.876 79.9296 9.356 79.4016 10.316V8.956H77.5456V17.5H79.4496V13.164C79.4496 11.676 80.2176 10.828 81.6736 10.828C81.8816 10.828 82.0576 10.844 82.2176 10.876V8.924ZM91.4954 13.788C91.5114 13.644 91.5274 13.452 91.5274 13.196C91.5274 11.868 91.1594 10.812 90.4234 9.996C89.6874 9.18 88.6634 8.78 87.3674 8.78C86.1354 8.78 85.1114 9.212 84.2954 10.076C83.4794 10.94 83.0634 11.98 83.0634 13.212C83.0634 14.476 83.4954 15.548 84.3434 16.396C85.2074 17.244 86.2794 17.66 87.5434 17.66C89.0794 17.66 90.4714 16.924 91.1914 15.596L89.8154 14.684C89.3514 15.564 88.5834 16.012 87.5114 16.012C86.8554 16.012 86.2794 15.804 85.7834 15.388C85.2874 14.956 85.0314 14.428 85.0154 13.788H91.4954ZM87.3674 10.412C88.5834 10.412 89.5274 11.148 89.5914 12.348H85.1114C85.2874 11.18 86.1994 10.412 87.3674 10.412Z" fill="#06942A"/>
<path d="M115.365 13.0599L110.385 18.0599C110.225 18.2199 110.025 18.2999 109.825 18.2999C109.625 18.2999 109.425 18.2199 109.265 18.0599C108.945 17.7399 108.945 17.2399 109.265 16.9199L112.885 13.2799H101.205C100.765 13.2799 100.405 12.9199 100.405 12.4799C100.405 12.0399 100.765 11.6799 101.205 11.6799H112.885L109.265 8.03991C108.945 7.71991 108.945 7.21991 109.265 6.89991C109.585 6.57991 110.085 6.57991 110.405 6.89991L115.385 11.8999C115.685 12.2399 115.685 12.7599 115.365 13.0599Z" fill="#06942A"/>
</svg>
